<?xml version="1.0" encoding="UTF-8"?>
<svg width="204px" height="40px" viewBox="0 0 204 40" version="1.1" xmlns="http://www.w3.org/2000/svg" xmlns:xlink="http://www.w3.org/1999/xlink">
    <!-- Generator: Sketch 48.2 (47327) - http://www.bohemiancoding.com/sketch -->
    <title>logo : Sainsburys</title>
    <desc>Created with Sketch.</desc>
    <defs>
        <path d="M3.02983099,0.030056338 C7.28653521,0.030056338 4.69056338,8.66557746 2.38766197,8.66557746 L1.36335211,8.66557746 C1.00850704,8.66557746 0.76715493,8.4716338 0.76715493,8.23028169 C0.76715493,7.59385915 1.55585915,6.85112676 1.55585915,4.79676056 C1.55585915,2.77543662 0.0833239437,1.31008451 0.0833239437,0.715323944 C0.0833239437,0.422253521 0.181014085,0.030056338 0.714,0.030056338 L3.02983099,0.030056338 Z" id="path-1"></path>
        <path d="M4.61442254,5.24366197 C4.61442254,9.10098592 17.0584225,7.34830986 17.0584225,15.054338 C17.0584225,24.0289014 7.09977465,23.9757465 1.69233803,21.5349296 C1.10619718,21.2476056 0.96684507,20.8094366 0.96684507,20.2692676 L0.96684507,18.371493 C0.96684507,17.687662 1.25416901,17.4879718 1.73687324,17.4879718 C2.08166197,17.4879718 2.37616901,17.6416901 2.66780282,17.8873521 C6.8483662,21.1068169 12.659493,20.7534085 12.659493,17.400338 C12.659493,13.1953521 0.373521127,14.8043662 0.373521127,7.04949296 C0.373521127,0.179577465 8.86107042,-1.24123944 15.1951268,1.39639437 C15.7913239,1.62769014 15.9392958,2.12188732 15.9392958,2.66205634 L15.9392958,4.26532394 C15.9392958,4.95633803 15.6433521,5.14884507 15.1505915,5.14884507 C14.9020563,5.14884507 14.5199155,4.95633803 14.2210986,4.75952113 C10.7143099,2.3675493 4.61442254,2.07304225 4.61442254,5.24366197 Z" id="path-3"></path>
        <path d="M0.925183099,0.432309859 C0.899323944,0.425126761 0.872028169,0.415070423 0.840422535,0.400704225 C0.854788732,0.407887324 0.889267606,0.417943662 0.925183099,0.432309859 Z" id="path-5"></path>
        <path d="M0.0846478873,0.0617746479 C0.0745915493,0.0545915493 0.0501690141,0.0430985915 0.00132394366,0.0258591549 C0.0386760563,0.0416619718 0.0717183099,0.0545915493 0.0846478873,0.0617746479 Z" id="path-7"></path>
        <path d="M13.656507,0.416507042 C18.36,0.416507042 20.4675211,3.15614085 20.4675211,7.11977465 L20.4675211,22.2473803 C20.4675211,22.5936056 20.2189859,22.8392676 19.878507,22.8392676 L15.1750141,22.8392676 C14.9365352,22.8392676 14.6951831,22.5936056 14.6951831,22.2473803 L14.6951831,7.61397183 C14.6951831,5.94892958 14.4983662,3.98507042 11.2573521,3.98507042 C9.5951831,3.98507042 7.64138028,4.95909859 6.70901408,5.50932394 L6.70901408,22.2473803 C6.70901408,22.5936056 6.46335211,22.8392676 6.1128169,22.8392676 L1.41938028,22.8392676 C1.17371831,22.8392676 0.928056338,22.5936056 0.928056338,22.2473803 L0.928056338,1.49397183 C0.928056338,1.1491831 1.17371831,0.897774648 1.41938028,0.897774648 L5.97202817,0.897774648 C6.32256338,0.897774648 6.56104225,1.1491831 6.56104225,1.49397183 L6.66304225,2.61597183 C8.12552113,1.72957746 10.9671549,0.416507042 13.656507,0.416507042 Z" id="path-9"></path>
        <path d="M14.370507,0.337605634 C15.0011831,0.487014085 15.341662,0.883521127 15.341662,1.36478873 L15.341662,4.44490141 C15.341662,4.77388732 15.0500282,5.12442254 14.699493,5.12442254 C14.1736901,5.12442254 13.6751831,4.92185915 13.0502535,4.77388732 C10.404,4.24090141 6.4188169,4.38743662 6.4188169,8.58667606 L6.4188169,21.7489859 C6.4188169,22.0937746 6.16597183,22.3394366 5.83698592,22.3394366 L1.14498592,22.3394366 C0.900760563,22.3394366 0.659408451,22.0937746 0.659408451,21.7489859 L0.659408451,1.07315493 C0.659408451,0.726929577 0.900760563,0.487014085 1.14498592,0.487014085 L5.68901408,0.487014085 C6.02230986,0.487014085 6.27084507,0.726929577 6.27084507,1.07315493 L6.36997183,3.70073239 C7.30233803,2.34025352 9.49892958,0.0948169014 12.2083944,0.0948169014 C12.8433803,0.0948169014 13.4367042,0.0948169014 14.370507,0.337605634 Z" id="path-11"></path>
        <path d="M0.00430985915,0.337605634 C0.116366197,0.364901408 0.186760563,0.383577465 0.231295775,0.393633803 C0.15084507,0.372084507 0.00430985915,0.337605634 0.00430985915,0.337605634 Z" id="path-13"></path>
        <path d="M19.3023099,0.488450704 C19.6312958,0.488450704 19.8841408,0.728366197 19.8841408,1.07459155 L19.8841408,14.7267887 C19.8841408,20.7735211 15.0125634,22.8264507 10.1309296,22.8264507 C5.29670423,22.8264507 0.420816901,20.7735211 0.420816901,15.3143662 L0.420816901,1.07459155 C0.420816901,0.728366197 0.663605634,0.488450704 0.910704225,0.488450704 L5.59552113,0.488450704 C5.93169014,0.488450704 6.17735211,0.728366197 6.17735211,1.07459155 L6.17735211,16.4349296 C6.17735211,18.7363944 7.64414085,20.1428451 10.1309296,20.1428451 C13.1650704,20.1428451 14.1319155,18.4390141 14.1319155,15.2655211 L14.1319155,1.07459155 C14.1319155,0.728366197 14.3804507,0.488450704 14.6261127,0.488450704 L19.3023099,0.488450704 Z" id="path-15"></path>
        <path d="M0.0344788732,3.5556338 C0.0344788732,2.09315493 1.05878873,0.823183099 3.19504225,0.820309859 L3.21515493,0.820309859 C5.25659155,0.823183099 6.28090141,2.09315493 6.28090141,3.5556338 C6.28090141,5.31261972 5.1071831,6.48346479 3.20509859,6.48346479 C1.29726761,6.48346479 0.0344788732,5.31261972 0.0344788732,3.5556338 Z" id="path-17"></path>
        <path d="M5.59707042,0.548788732 C5.93323944,0.548788732 6.17602817,0.793014085 6.17602817,1.12774648 L6.17602817,21.8093239 C6.17602817,22.1555493 5.93323944,22.3997746 5.59707042,22.3997746 L0.913690141,22.3997746 C0.669464789,22.3997746 0.423802817,22.1555493 0.423802817,21.8093239 L0.423802817,1.12774648 C0.423802817,0.793014085 0.669464789,0.548788732 0.913690141,0.548788732 L5.59707042,0.548788732 Z" id="path-19"></path>
        <path d="M12.2944789,7.84383099 C17.3197746,7.84383099 20.4875211,12.2355775 20.4875211,18.0811831 C20.4875211,25.6018873 15.2682817,30.5725915 8.82504225,30.5725915 C5.30676056,30.5725915 2.73233803,29.3471549 1.02850704,28.0383944 C0.298704225,27.5025352 0.147859155,26.5802254 0.147859155,25.7972676 L0.147859155,0.620507042 C0.147859155,0.281464789 0.389211268,0.0401126761 0.632,0.0401126761 L5.30676056,0.0401126761 C5.64867606,0.0401126761 5.89721127,0.281464789 5.89721127,0.620507042 L5.89721127,10.3277465 C6.82239437,9.55340845 8.96870423,7.84383099 12.2944789,7.84383099 Z M9.21005634,27.9407042 C12.331831,27.9407042 14.5413521,24.7269859 14.5413521,19.2549014 C14.5413521,17.2120282 14.0888169,11.4540563 9.65684507,11.4540563 C7.8955493,11.4540563 6.62270423,12.4280845 5.89721127,12.962507 L5.89721127,26.1420563 C5.89721127,26.5802254 5.98771831,27.0097746 6.58104225,27.4048451 C7.0651831,27.6907324 7.79929577,27.9407042 9.21005634,27.9407042 Z" id="path-21"></path>
        <path d="M5.42180282,6.68160563 C5.42180282,12.2355775 20.8884507,11.6566197 20.8884507,20.6771549 C20.8884507,30.4734648 9.22453521,32.7260845 1.0271831,28.8673239 C0.544478873,28.568507 0.448225352,28.3285915 0.448225352,27.8889859 L0.448225352,25.4093803 C0.448225352,24.9611549 0.597633803,24.5258592 1.42512676,24.5258592 C1.86616901,24.5258592 2.1491831,24.7772676 2.78847887,25.214 C9.57076056,29.9419155 15.4163662,27.1117746 15.4163662,23.0590704 C15.4163662,16.3845352 0.20256338,18.4288451 0.20256338,8.57219718 C0.20256338,4.04253521 3.71509859,0.0401126761 10.2057465,0.0401126761 C13.422338,0.0401126761 16.3415493,0.669352113 18.0094648,1.30146479 C18.4490704,1.50402817 18.5410141,1.74969014 18.5410141,2.17923944 L18.5410141,5.01512676 C18.5410141,5.45616901 18.3944789,5.79664789 17.8672394,5.79664789 C17.4247606,5.79664789 17.0785352,5.5495493 16.5441127,5.16166197 C14.5989296,3.74946479 12.7356338,2.92053521 10.2976901,2.92053521 C7.57242254,2.92053521 5.42180282,4.4275493 5.42180282,6.68160563 Z" id="path-23"></path>
        <path d="M10.2359155,0.37484507 C17.1201972,0.37484507 19.217662,3.10729577 19.217662,7.05943662 L19.217662,22.2330141 C19.217662,22.5720563 18.9662535,22.8105352 18.6329577,22.8105352 L14.1923662,22.8105352 C13.9495775,22.8105352 13.7125352,22.5720563 13.7125352,22.2330141 L13.6033521,20.9630423 C12.0388732,22.3235211 10.1899437,23.3018592 7.94594366,23.3018592 C3.84583099,23.3018592 0.334732394,20.9630423 0.334732394,16.5712958 C0.334732394,11.2471831 6.23492958,10.0892676 8.82515493,9.74304225 C13.0703662,9.20287324 13.4625634,8.9155493 13.4625634,7.78923944 C13.4625634,5.39870423 13.0243944,3.44346479 10.0419718,3.44346479 C7.65430986,3.44346479 5.85135211,4.27814085 4.03833803,5.49495775 C3.74670423,5.69464789 3.31140845,6.23194366 2.72670423,6.23194366 C2.43938028,6.23194366 1.90352113,5.93312676 1.90352113,5.25791549 L1.90352113,3.06419718 C1.90352113,2.61597183 2.09459155,2.17780282 2.63188732,1.88616901 C4.58569014,0.915014085 7.60546479,0.37484507 10.2359155,0.37484507 Z M13.4625634,18.0380845 L13.4625634,11.5862254 C8.0436338,11.5862254 5.9964507,14.0313521 5.9964507,16.6689859 C5.9964507,18.5250986 6.97047887,20.3668451 9.55208451,20.3668451 C11.8032676,20.3668451 13.4625634,18.6687606 13.4625634,18.0380845 Z" id="path-25"></path>
        <path d="M4.74946479,5.24366197 C4.74946479,9.10098592 17.1834085,7.34830986 17.1834085,15.054338 C17.1834085,24.0289014 7.22619718,23.9757465 1.82738028,21.5349296 C1.22830986,21.2476056 1.08464789,20.8094366 1.08464789,20.2692676 L1.08464789,18.371493 C1.08464789,17.687662 1.38633803,17.4879718 1.87047887,17.4879718 C2.20664789,17.4879718 2.50402817,17.6416901 2.79566197,17.8873521 C6.99346479,21.1068169 12.791662,20.7534085 12.791662,17.400338 C12.791662,13.1953521 0.50856338,14.8043662 0.50856338,7.04949296 C0.50856338,0.179577465 8.98605634,-1.24123944 15.3344789,1.39639437 C15.9163099,1.62769014 16.0614085,2.12188732 16.0614085,2.66205634 L16.0614085,4.26532394 C16.0614085,4.95633803 15.7726479,5.14884507 15.288507,5.14884507 C15.0428451,5.14884507 14.6434648,4.95633803 14.3590141,4.75952113 C10.8407324,2.3675493 4.74946479,2.07304225 4.74946479,5.24366197 Z" id="path-27"></path>
        <path d="M12.1724789,24.6365915 C10.9513521,27.7928451 7.44312676,30.4347887 3.68061972,30.4347887 C3.04276056,30.4347887 2.47098592,30.4347887 1.62912676,30.1819437 C1.00132394,30.0382817 0.66228169,29.6561408 0.66228169,29.1648169 L0.66228169,26.3863944 C0.66228169,26.0430423 0.959661972,25.7068732 1.29726761,25.7068732 C1.83169014,25.7068732 2.22101408,25.8505352 2.80715493,26.0013803 C6.65873239,27.0774085 10.0750141,25.8505352 10.1755775,22.2374366 L1.29726761,1.70239437 C1.09901408,1.21538028 1.04729577,1.07315493 1.04729577,0.928056338 C1.04729577,0.636422535 1.19383099,0.488450704 1.48546479,0.488450704 L6.81676056,0.488450704 C7.24774648,0.488450704 7.44312676,0.636422535 7.59109859,1.02574648 L12.557493,14.1952394 L12.852,15.1175493 L13.1436338,14.1952394 L17.9735493,1.02574648 C18.0741127,0.685267606 18.3169014,0.488450704 18.6645634,0.488450704 L20.898507,0.488450704 C21.1412958,0.488450704 21.3438592,0.685267606 21.3438592,0.928056338 C21.3438592,1.11912676 21.2418592,1.25991549 21.1412958,1.55873239 L12.1724789,24.6365915 Z" id="path-29"></path>
    </defs>
    <g id="sheet-1" stroke="none" stroke-width="1" fill="none" fill-rule="evenodd" transform="translate(-59.000000, -3409.000000)">
        <g id=":-logos" transform="translate(56.000000, 3192.000000)">
            <g id="logo-:-Sainsburys" transform="translate(3.000000, 217.000000)">
                <g>
                    <g id="Group-3" transform="translate(183.887324, 1.000000)">
                        <mask id="mask-2" fill="white">
                            <use xlink:href="#path-1"></use>
                        </mask>
                        <g id="Clip-2"></g>
                        <polygon id="Fill-1" fill="#F06C00" mask="url(#mask-2)" points="-0.0287323944 8.7115493 5.31549296 8.7115493 5.31549296 -0.0805633803 -0.0287323944 -0.0805633803"></polygon>
                    </g>
                    <g id="Group-6" transform="translate(186.760563, 8.619718)">
                        <mask id="mask-4" fill="white">
                            <use xlink:href="#path-3"></use>
                        </mask>
                        <g id="Clip-5"></g>
                        <polygon id="Fill-4" fill="#F06C00" mask="url(#mask-4)" points="0.373521127 22.9859155 17.0957746 22.9859155 17.0957746 0.0574647887 0.373521127 0.0574647887"></polygon>
                    </g>
                    <g id="Group-9" transform="translate(201.126761, 9.619718)">
                        <mask id="mask-6" fill="white">
                            <use xlink:href="#path-5"></use>
                        </mask>
                        <g id="Clip-8"></g>
                        <polygon id="Fill-7" fill="#F06C00" mask="url(#mask-6)" points="0.833239437 0.436619718 1.0056338 0.436619718 1.0056338 0.264225352 0.833239437 0.264225352"></polygon>
                    </g>
                    <g id="Group-12" transform="translate(202.126761, 10.056338)">
                        <mask id="mask-8" fill="white">
                            <use xlink:href="#path-7"></use>
                        </mask>
                        <g id="Clip-11"></g>
                        <polygon id="Fill-10" fill="#F06C00" mask="url(#mask-8)" points="-0.166760563 0.172394366 0.178028169 0.172394366 0.178028169 0 -0.166760563 0"></polygon>
                    </g>
                    <g id="Group-15" transform="translate(56.028169, 8.183099)">
                        <mask id="mask-10" fill="white">
                            <use xlink:href="#path-9"></use>
                        </mask>
                        <g id="Clip-14"></g>
                        <polygon id="Fill-13" fill="#F06C00" mask="url(#mask-10)" points="0.775774648 22.9053521 20.6011268 22.9053521 20.6011268 0.321690141 0.775774648 0.321690141"></polygon>
                    </g>
                    <g id="Group-18" transform="translate(145.098592, 8.619718)">
                        <mask id="mask-12" fill="white">
                            <use xlink:href="#path-11"></use>
                        </mask>
                        <g id="Clip-17"></g>
                        <polygon id="Fill-16" fill="#F06C00" mask="url(#mask-12)" points="0.488450704 22.4687324 15.4867606 22.4687324 15.4867606 0.0574647887 0.488450704 0.0574647887"></polygon>
                    </g>
                    <g id="Group-21" transform="translate(159.464789, 8.619718)">
                        <mask id="mask-14" fill="white">
                            <use xlink:href="#path-13"></use>
                        </mask>
                        <g id="Clip-20"></g>
                        <polygon id="Fill-19" fill="#F06C00" mask="url(#mask-14)" points="-0.0861971831 0.402253521 0.258591549 0.402253521 0.258591549 0.229859155 -0.0861971831 0.229859155"></polygon>
                    </g>
                    <g id="Group-24" transform="translate(121.676056, 8.619718)">
                        <mask id="mask-16" fill="white">
                            <use xlink:href="#path-15"></use>
                        </mask>
                        <g id="Clip-23"></g>
                        <polygon id="Fill-22" fill="#F06C00" mask="url(#mask-16)" points="0.292957746 22.9859155 19.9459155 22.9859155 19.9459155 0.402253521 0.292957746 0.402253521"></polygon>
                    </g>
                    <g id="Group-27" transform="translate(45.971831, 0.000000)">
                        <mask id="mask-18" fill="white">
                            <use xlink:href="#path-17"></use>
                        </mask>
                        <g id="Clip-26"></g>
                        <polygon id="Fill-25" fill="#F06C00" mask="url(#mask-18)" points="-0.0287323944 6.6084507 6.34985915 6.6084507 6.34985915 0.747042254 -0.0287323944 0.747042254"></polygon>
                    </g>
                    <g id="Group-30" transform="translate(45.971831, 8.619718)">
                        <mask id="mask-20" fill="white">
                            <use xlink:href="#path-19"></use>
                        </mask>
                        <g id="Clip-29"></g>
                        <polygon id="Fill-28" fill="#F06C00" mask="url(#mask-20)" points="0.316056338 22.4687324 6.17746479 22.4687324 6.17746479 0.402253521 0.316056338 0.402253521"></polygon>
                    </g>
                    <g id="Group-33" transform="translate(98.690141, 1.000000)">
                        <mask id="mask-22" fill="white">
                            <use xlink:href="#path-21"></use>
                        </mask>
                        <g id="Clip-32"></g>
                        <polygon id="Fill-31" fill="#F06C00" mask="url(#mask-22)" points="0.00563380282 30.6056338 20.5205634 30.6056338 20.5205634 -0.0805633803 0.00563380282 -0.0805633803"></polygon>
                    </g>
                    <g id="Group-36" transform="translate(0.000000, 1.000000)">
                        <mask id="mask-24" fill="white">
                            <use xlink:href="#path-23"></use>
                        </mask>
                        <g id="Clip-35"></g>
                        <polygon id="Fill-34" fill="#F06C00" mask="url(#mask-24)" points="0.0861971831 30.7780282 20.9459155 30.7780282 20.9459155 -0.0805633803 0.0861971831 -0.0805633803"></polygon>
                    </g>
                    <g id="Group-39" transform="translate(22.985915, 8.183099)">
                        <mask id="mask-26" fill="white">
                            <use xlink:href="#path-25"></use>
                        </mask>
                        <g id="Clip-38"></g>
                        <polygon id="Fill-37" fill="#F06C00" mask="url(#mask-26)" points="0.201126761 23.4225352 19.3369014 23.4225352 19.3369014 0.321690141 0.201126761 0.321690141"></polygon>
                    </g>
                    <g id="Group-42" transform="translate(79.014085, 8.619718)">
                        <mask id="mask-28" fill="white">
                            <use xlink:href="#path-27"></use>
                        </mask>
                        <g id="Clip-41"></g>
                        <polygon id="Fill-40" fill="#F06C00" mask="url(#mask-28)" points="0.373521127 22.9859155 17.268169 22.9859155 17.268169 0.0574647887 0.373521127 0.0574647887"></polygon>
                    </g>
                    <g id="Group-45" transform="translate(160.901408, 8.619718)">
                        <mask id="mask-30" fill="white">
                            <use xlink:href="#path-29"></use>
                        </mask>
                        <g id="Clip-44"></g>
                        <polygon id="Fill-43" fill="#F06C00" mask="url(#mask-30)" points="0.545915493 30.5712676 21.4056338 30.5712676 21.4056338 0.402253521 0.545915493 0.402253521"></polygon>
                    </g>
                </g>
            </g>
        </g>
    </g>
</svg>